<svg xmlns="http://www.w3.org/2000/svg" width="97.801" height="108.597" viewBox="0 0 97.801 108.597">
  <g id="bag-check" transform="translate(-1)">
    <path id="Path_12" data-name="Path 12" d="M52.161,9.243a4.149,4.149,0,0,1,0,5.994l-26.143,25.4a4.448,4.448,0,0,1-6.17,0L6.777,27.937a4.154,4.154,0,0,1,0-5.994,4.453,4.453,0,0,1,6.17,0l9.987,9.711L45.991,9.243a4.448,4.448,0,0,1,6.17,0Z" transform="translate(21.898 41.813)" fill="#fff" fill-rule="evenodd"/>
    <path id="Path_13" data-name="Path 13" d="M49.9,6.787A17.222,17.222,0,0,1,67.365,23.756v3.394H32.436V23.756A17.222,17.222,0,0,1,49.9,6.787Zm24.45,20.362V23.756C74.351,10.636,63.4,0,49.9,0S25.45,10.636,25.45,23.756v3.394H1V95.022A13.777,13.777,0,0,0,14.972,108.6H84.83A13.777,13.777,0,0,0,98.8,95.022V27.149ZM7.986,33.936h83.83V95.022a6.889,6.889,0,0,1-6.986,6.787H14.972a6.889,6.889,0,0,1-6.986-6.787Z" fill="#fff"/>
  </g>
</svg>
