<svg xmlns="http://www.w3.org/2000/svg" width="91.281" height="28.504" viewBox="0 0 91.281 28.504">
  <g id="bca-bank-central-asia" transform="translate(-4.444 -2.993)">
    <path id="Path_20" data-name="Path 20" d="M185.395,26.645c5.741-2.6,6.59-11.1-1.576-11.1h-9.458l-3.5,6.853h1.645L168.33,38.775H179.3c8,.068,11.6-9.351,6.1-12.13Zm-6.1,6.168h-2.741l1.028-3.7h2.6C183.27,29.729,181.351,32.95,179.3,32.813Zm1.645-7.881h-2.33l.685-3.221h2.6C184.416,22.328,182.242,25.069,180.94,24.932Z" transform="translate(-131.681 -10.084)" fill="#005faf" stroke="#005faf" stroke-width="1"/>
    <path id="Path_21" data-name="Path 21" d="M291.3,23.805l3.59-6.338-4.858-2.534-.634.782c-2.621-1.387-16.345.528-17.2,14.066.514,11.357,13.239,9.314,14.488,8.593l3.5-7.235c-3.428,2.258-10.447,3.342-10.744-3.441C280.052,22.106,286.655,20.017,291.3,23.805Zm17.916-8.752H298.176L294.668,21.7h1.8l-8.318,16.584H296.2l1.653-4H302.8l.123,4h7.412ZM300.1,28.9l2.7-6.452.123,6.452Z" transform="translate(-215.133 -9.594)" fill="#005faf" stroke="#005faf" stroke-width="1"/>
    <g id="Group_14" data-name="Group 14" transform="translate(4.444 2.993)">
      <path id="Path_22" data-name="Path 22" d="M62.917,124.959l.429-.124-.47-.65Zm-7.039-.111-.083.581c.213-.021.476.163.581-.249C56.368,124.859,56.124,124.842,55.878,124.849Zm3.416-.014c-.036-.158-.168-.275-.5-.166l.111.594C59.178,125.2,59.318,125.043,59.294,124.835Zm-7.717-.487-.132.528c.212.009.461.181.6-.132C52.056,124.548,52.064,124.353,51.577,124.348ZM59,125.706l.1.609c.227.006.433-.13.373-.415S59.186,125.67,59,125.706Z" transform="translate(-42.209 -100.37)" fill="#005faf"/>
      <path id="Path_23" data-name="Path 23" d="M30.232,5.772A25.963,25.963,0,0,0,7.186,5.609c-3.6,6.334-3.713,15.2,0,23.046a25.548,25.548,0,0,0,23.1.163c3.248-6.664,3.785-14.683-.054-23.046ZM17.864,24.685l-.434,0a5.434,5.434,0,0,0-1.009-2.979c-2.82-3.537-8.586-.874-7.1-6.885.77-3.073,9.557-4.885,8.548,9.859ZM9.327,18.749C9.943,20,13.8,20.207,15.141,21.167a3.877,3.877,0,0,1,1.82,3.524h-.5c-.986-3.024-3.755-.63-5.973-1.444A3.011,3.011,0,0,1,9.327,18.749Zm7.03,9.857.208-1.646.373.028L16.772,28.8a.779.779,0,0,1-1.507-.069l.194-1.881.443.069-.194,1.576C15.731,29.017,16.255,28.985,16.357,28.606Zm-1.987.449-.426-.1c.05-.352.467-1.067-.357-1.067l-.23.935-.47-.088.5-2.245c1.22.133,1.326.472,1.35.837-.048.283-.123.48-.367.528C14.655,28.11,14.373,28.652,14.37,29.055Zm-2.7-2.515a2.8,2.8,0,0,0-.386,1.133c-.036.459.405.363.515.309.089-.043.154-.412.154-.412l-.309-.1.1-.309.7.232L12.1,28.548l-.283-.077.026-.18c-.347.158-.981.039-1.056-.36a2.942,2.942,0,0,1,.515-1.75c.354-.443,1.215-.01,1.236.257a1.628,1.628,0,0,1-.084.566l-.324-.061s.02-.1.048-.248-.389-.322-.515-.154Zm6.322,1.886-.083,1-.346-.014.124-2.365c.863.018,1.358.137,1.342.747-.051.833-.726.646-1.037.636Zm.861-3.735h-.578c-.051-2.048.343-5.794-.734-8.551-.815-2.09-2.879-3.03-3.336-4.718-.724-2.672.508-5.563,4.648-5.786,3.589.368,4.691,3.139,4.079,5.719-1.052,2.579-2.105,2.209-3.416,4.778-1.07,2.754-.663,6.362-.664,8.559Zm6.414,3.79-.4.138-.125-2.379.47-.124,1.162,1.964-.318.208-.387-.553-.443.166Zm-4.679-3.79h-.463c.381-5.26,6.991-4.117,7.595-5.942,1.045,1.809.669,3.335-.422,4.117C24.584,24.81,21.985,21.427,20.584,24.691Zm2.453,2.656.208,1.093c.129.252.217.205.415.18.23-.166.182-.328.138-.539l.4-.055c.1.792-.272.872-.553.927-.6.043-.722-.074-.885-.857-.1-.67-.259-1.378.3-1.507.925-.141.871.275.954.567l-.4.069c-.064-.251-.156-.35-.36-.332a.37.37,0,0,0-.221.456Zm-.844,1.134c.019.344-.1.573-.318.65l-.94.194-.373-2.282c.193-.031,1.139-.378,1.369.249a.622.622,0,0,1-.138.691.621.621,0,0,1,.4.5ZM19.778,17.03c2.1-5.9,6.889-4.857,7.953-2.2,1.457,5.324-3.234,3.864-6.239,6.047a4.7,4.7,0,0,0-1.742,3.838h-.515C19.2,21.252,19.148,18.8,19.778,17.03Z" transform="translate(-4.444 -2.993)" fill="#005faf"/>
    </g>
  </g>
</svg>
