<svg xmlns="http://www.w3.org/2000/svg" width="29.613" height="35.151" viewBox="0 0 29.613 35.151">
  <path id="bookmark-star-fill" d="M2,34.052V4.394A4.688,4.688,0,0,1,6.936,0H26.678a4.688,4.688,0,0,1,4.936,4.394V34.052a1.081,1.081,0,0,1-.6.946,1.367,1.367,0,0,1-1.222.019l-12.98-6.305L3.826,35.016A1.367,1.367,0,0,1,2.6,35a1.081,1.081,0,0,1-.6-.946ZM17.2,9.007a.465.465,0,0,0-.79,0L14.847,11.83a.439.439,0,0,1-.331.215l-3.5.453a.429.429,0,0,0-.352.266.362.362,0,0,0,.11.4l2.532,2.2a.366.366,0,0,1,.126.347l-.595,3.106a.373.373,0,0,0,.176.381.485.485,0,0,0,.461.03L16.6,17.76a.488.488,0,0,1,.407,0l3.134,1.468A.485.485,0,0,0,20.6,19.2a.373.373,0,0,0,.175-.379l-.6-3.109a.365.365,0,0,1,.123-.347l2.537-2.2a.362.362,0,0,0,.11-.4A.429.429,0,0,0,22.6,12.5l-3.5-.453a.439.439,0,0,1-.331-.215Z" transform="translate(-2)" fill-rule="evenodd"/>
</svg>
