<svg xmlns="http://www.w3.org/2000/svg" width="45" height="45" viewBox="0 0 45 45">
  <g id="cart" transform="translate(-1558 -95)">
    <circle id="Ellipse_1" data-name="Ellipse 1" cx="22.5" cy="22.5" r="22.5" transform="translate(1558 95)" fill="#0286e7"/>
    <path id="cart2" d="M0,2.812A.787.787,0,0,1,.759,2H3.035a.77.77,0,0,1,.736.615l.615,2.631H22a.742.742,0,0,1,.6.312.856.856,0,0,1,.138.7l-2.276,9.739a.77.77,0,0,1-.736.615H6.07a.77.77,0,0,1-.736-.615L2.443,3.623H.759A.787.787,0,0,1,0,2.812ZM4.765,6.87l1.9,8.116H19.135l1.9-8.116ZM7.587,19.856a1.627,1.627,0,0,0,0,3.246,1.627,1.627,0,0,0,0-3.246ZM4.552,21.479a3.146,3.146,0,0,1,3.035-3.246,3.254,3.254,0,0,1,0,6.493A3.146,3.146,0,0,1,4.552,21.479Zm13.657-1.623a1.627,1.627,0,1,0,1.517,1.623A1.573,1.573,0,0,0,18.209,19.856Zm-3.035,1.623a3.146,3.146,0,0,1,3.035-3.246,3.254,3.254,0,0,1,0,6.493A3.146,3.146,0,0,1,15.174,21.479Z" transform="translate(1569.12 104.137)" fill="#fff"/>
  </g>
</svg>
