<svg id="clock" xmlns="http://www.w3.org/2000/svg" width="108" height="108" viewBox="0 0 108 108">
  <path id="Path_14" data-name="Path 14" d="M14.625,6.813A3.812,3.812,0,1,0,7,6.813V48.75a3.812,3.812,0,0,0,1.921,3.309l26.688,15.25a3.812,3.812,0,0,0,3.782-6.618L14.625,46.539Z" transform="translate(37.861 14.279)" fill="#fff"/>
  <path id="Path_15" data-name="Path 15" d="M54,108A54,54,0,1,0,0,54,54,54,0,0,0,54,108Zm47.25-54A47.25,47.25,0,1,1,54,6.75,47.25,47.25,0,0,1,101.25,54Z" fill="#fff"/>
</svg>
