<svg id="logo" xmlns="http://www.w3.org/2000/svg" width="403.89" height="91.587" viewBox="0 0 403.89 91.587">
  <path id="Path_9" data-name="Path 9" d="M169.968,393.846a7.507,7.507,0,1,0,7.507,7.507A7.516,7.516,0,0,0,169.968,393.846Z" transform="translate(226.415 -333.789)" fill="#ff5700"/>
  <path id="Path_8" data-name="Path 8" d="M169.968,393.846a7.507,7.507,0,1,0,7.507,7.507A7.516,7.516,0,0,0,169.968,393.846Z" transform="translate(224.913 -336.792)" fill="#0286e7"/>
  <text id="Marvee" transform="translate(86 71.285)" fill="#4b4b4b" font-size="73" font-family="Montserrat-Bold, Montserrat" font-weight="700"><tspan x="0" y="0">Marvee</tspan></text>
  <g id="ic-bag">
    <path id="bag" d="M35.8,4.972A12.429,12.429,0,0,1,48.231,17.4v2.486H23.373V17.4A12.429,12.429,0,0,1,35.8,4.972ZM53.2,19.887V17.4a17.4,17.4,0,1,0-34.8,0v2.486H1V69.6a9.943,9.943,0,0,0,9.943,9.943H60.661A9.943,9.943,0,0,0,70.6,69.6V19.887ZM5.972,24.859H65.632V69.6a4.972,4.972,0,0,1-4.972,4.972H10.943A4.972,4.972,0,0,1,5.972,69.6Z" transform="translate(-1)" fill="#0286e7"/>
    <path id="bag-2" data-name="bag" d="M35.8,4.972A12.429,12.429,0,0,1,48.231,17.4v2.486H23.373V17.4A12.429,12.429,0,0,1,35.8,4.972ZM53.2,19.887V17.4a17.4,17.4,0,1,0-34.8,0v2.486H1V69.6a9.943,9.943,0,0,0,9.943,9.943H60.661A9.943,9.943,0,0,0,70.6,69.6V19.887ZM5.972,24.859H65.632V69.6a4.972,4.972,0,0,1-4.972,4.972H10.943A4.972,4.972,0,0,1,5.972,69.6Z" transform="translate(8.977 12.039)" fill="#ff5700"/>
  </g>
</svg>
