<svg xmlns="http://www.w3.org/2000/svg" width="143.948" height="108" viewBox="0 0 143.948 108">
  <path id="truck" d="M0,15.5A13.5,13.5,0,0,1,13.5,2H94.466a13.5,13.5,0,0,1,13.5,13.5v13.5h9.177a13.5,13.5,0,0,1,10.526,5.065L140.988,50.7a13.5,13.5,0,0,1,2.96,8.439V78.472a13.5,13.5,0,0,1-13.5,13.5h-4.5a17.994,17.994,0,1,1-35.987,0H44.984A17.994,17.994,0,1,1,9.015,91.2,13.5,13.5,0,0,1,0,78.472Zm11.642,67.08a17.985,17.985,0,0,1,30.931.4H92.379a18.083,18.083,0,0,1,6.586-6.586V15.5a4.5,4.5,0,0,0-4.5-4.5H13.5A4.5,4.5,0,0,0,9,15.5V78.472a4.5,4.5,0,0,0,2.645,4.1Zm96.319-8.6a17.993,17.993,0,0,1,15.582,9h6.91a4.5,4.5,0,0,0,4.5-4.5V59.129a4.5,4.5,0,0,0-.99-2.807L120.647,39.678a4.5,4.5,0,0,0-3.509-1.691h-9.177Zm-80.971,9a9,9,0,1,0,9,9A9,9,0,0,0,26.99,82.971Zm80.971,0a9,9,0,1,0,9,9A9,9,0,0,0,107.961,82.971Z" transform="translate(0 -2)" fill="#fff"/>
</svg>
