<svg xmlns="http://www.w3.org/2000/svg" width="16" height="16" viewBox="0 0 16 16">
  <path id="twitter" d="M5.026,18c6.038,0,9.341-6.157,9.341-11.487,0-.172,0-.347-.006-.519A7.741,7.741,0,0,0,16,3.9a5.717,5.717,0,0,1-1.889.637A4.024,4.024,0,0,0,15.558,2.3a5.847,5.847,0,0,1-2.087.976,2.856,2.856,0,0,0-3.946-.8A4.424,4.424,0,0,0,7.875,6.96,8.882,8.882,0,0,1,1.108,2.74,4.642,4.642,0,0,0,2.126,8.133a2.863,2.863,0,0,1-1.486-.5v.055a3.933,3.933,0,0,0,2.632,3.96,2.717,2.717,0,0,1-1.479.071,3.447,3.447,0,0,0,3.067,2.8A5.853,5.853,0,0,1,.78,16.252,5.151,5.151,0,0,1,0,16.2,8.118,8.118,0,0,0,5.026,18Z" transform="translate(0 -1.999)" fill="#fff"/>
</svg>
