<svg xmlns="http://www.w3.org/2000/svg" width="820" height="532.55" viewBox="0 0 820 532.55">
  <g id="undraw_Login_re_4vu2" transform="translate(0 0)">
    <path id="Path_98" data-name="Path 98" d="M830.149,708.173c-10.5-9.637-16.875-24.861-15.2-39.681s12.03-28.445,25.466-31.592,28.751,5.565,32.832,19.823c2.246-27.489,4.834-56.13,18.287-79.539,12.181-21.2,33.28-36.364,56.145-39.077s46.941,7.535,61.2,27.141,17.752,48.11,7.764,70.62c-7.358,16.582-20.913,28.923-35.115,38.963-45.894,32.169-100.937,45.251-155,36.838Z" transform="translate(-202.338 -181.606)" fill="#f2f2f2"/>
    <path id="Path_99" data-name="Path 99" d="M990.018,546.023a388.119,388.119,0,0,0-51.675,55.745,412.469,412.469,0,0,0-58.2,105.665c-1.048,2.79,3.122,4,4.159,1.245,23.425-62.157,60.822-116.942,108.769-159.343,2.153-1.9-.914-5.2-3.05-3.313Z" transform="translate(-206.09 -181.42)" fill="#fff"/>
    <path id="Path_100" data-name="Path 100" d="M428.971,707.1c14.419-13.237,23.178-34.146,20.881-54.5s-16.523-39.069-34.977-43.392-39.49,7.643-45.095,27.227c-3.085-37.756-6.639-77.094-25.117-109.247-16.731-29.114-45.71-49.946-77.116-53.672s-64.473,10.349-84.06,37.279-24.383,66.079-10.665,97c10.106,22.776,28.724,39.726,48.231,53.515,62.235,43.994,139.437,62.342,212.9,50.6" transform="translate(-165 -183.156)" fill="#f2f2f2"/>
    <path id="Path_101" data-name="Path 101" d="M217.25,484.391a533.083,533.083,0,0,1,70.976,76.567A566.33,566.33,0,0,1,344.2,650.952a581.983,581.983,0,0,1,23.969,55.135c1.439,3.832-4.288,5.5-5.712,1.711a566.907,566.907,0,0,0-46.192-94.947,546.717,546.717,0,0,0-61.952-83.142,525.516,525.516,0,0,0-41.251-40.768c-2.957-2.616,1.256-7.145,4.189-4.551Z" transform="translate(-167.704 -182.9)" fill="#fff"/>
    <path id="Path_102" data-name="Path 102" d="M768.523,721.355H424.5V337.89c0-81.585,61.1-147.959,136.2-147.959h71.633c75.1,0,136.2,66.374,136.2,147.959Z" transform="translate(-179.914 -189.931)" fill="#f2f2f2"/>
    <path id="Path_103" data-name="Path 103" d="M696.891,721.355H424.5V337.89a155.517,155.517,0,0,1,26.01-86.978c.626-.926,1.25-1.841,1.893-2.745A142.124,142.124,0,0,1,481.39,217.6c.622-.491,1.246-.974,1.88-1.457a132.448,132.448,0,0,1,29.664-16.853c.623-.256,1.257-.513,1.891-.76a126.8,126.8,0,0,1,29.321-7.512c.62-.092,1.256-.164,1.893-.236a126.982,126.982,0,0,1,29.318,0c.635.072,1.271.144,1.9.237a126.772,126.772,0,0,1,29.313,7.511c.634.247,1.269.5,1.893.761a132.078,132.078,0,0,1,29.319,16.6c.633.472,1.267.955,1.891,1.438A141.223,141.223,0,0,1,657,233.271a144.793,144.793,0,0,1,11.993,14.9c.642.9,1.266,1.816,1.89,2.741a155.516,155.516,0,0,1,26.011,86.979Z" transform="translate(-179.914 -189.931)" fill="#ccc"/>
    <ellipse id="Ellipse_20" data-name="Ellipse 20" cx="15.08" cy="16.383" rx="15.08" ry="16.383" transform="translate(479.747 327.148)" fill="#0286e7"/>
    <path id="Path_104" data-name="Path 104" d="M593.559,508.915H582l-5.5-48.42h17.055Z" transform="translate(-33.132 11.024)" fill="#ffb8b8"/>
    <path id="Path_105" data-name="Path 105" d="M572.726,504.28h22.285v15.243H558.7c0-8.419,6.282-15.243,14.031-15.243Z" transform="translate(-32.109 12.072)" fill="#2f2e41"/>
    <path id="Path_106" data-name="Path 106" d="M654.559,508.915H643l-5.5-48.42h17.055Z" transform="translate(-36.638 11.024)" fill="#ffb8b8"/>
    <path id="Path_107" data-name="Path 107" d="M633.726,504.28h22.285v15.243H619.7c0-8.419,6.282-15.243,14.031-15.243Z" transform="translate(-35.614 12.072)" fill="#2f2e41"/>
    <path id="Path_108" data-name="Path 108" d="M697.991,531.729a11.8,11.8,0,0,1-1.36-9.189,10.777,10.777,0,0,1,5.612-7.033L741.523,397.89l19.328,11.46L716,521.749a11.476,11.476,0,0,1-4.924,13.681,9.715,9.715,0,0,1-13.086-3.7Z" transform="translate(-195.531 -184.952)" fill="#ffb8b8"/>
    <path id="Path_109" data-name="Path 109" d="M813.428,553.481a11.021,11.021,0,0,1-4.932-7.611,11.693,11.693,0,0,1,2.205-8.994L798.533,412.458l22,1.092,5.057,122.382a11.768,11.768,0,0,1,1.1,14.641,9.665,9.665,0,0,1-13.254,2.908Z" transform="translate(-201.409 -184.604)" fill="#ffb8b8"/>
    <ellipse id="Ellipse_21" data-name="Ellipse 21" cx="23.149" cy="25.149" rx="23.149" ry="25.149" transform="translate(553.778 140.855)" fill="#ffb8b8"/>
    <path id="Path_110" data-name="Path 110" d="M809.924,525.826H740.133l.084-.59c.125-.882,12.438-88.508,3.357-117.175-1.887-5.834.58-12.276,5.721-14.933h0c12.98-6.641,37.9-14.818,58.927,5.027a30.214,30.214,0,0,1,8.916,23.956Z" transform="translate(-198.053 -185.245)" fill="#0286e7"/>
    <path id="Path_111" data-name="Path 111" d="M752.438,449.481l-31.42-6.925,14.728-37.916c1.821-7.664,9.017-12.273,16.072-10.295s11.3,9.8,9.476,17.46Z" transform="translate(-196.955 -185.048)" fill="#0286e7"/>
    <path id="Path_112" data-name="Path 112" d="M796.919,462.277l-1.889-47.041c-1.432-8.843,3.227-17.2,10.394-18.569s14.168,4.772,15.607,13.68l7.1,43.955Z" transform="translate(-201.193 -184.986)" fill="#0286e7"/>
    <path id="Path_113" data-name="Path 113" d="M807.373,517.049c11.23,46.463,12.455,105.536,9.425,169.974l-15.08-2.048L774.384,562.1,759.3,687.023,742.338,686c-5.068-67.61-10-125.653-1.885-163.83Z" transform="translate(-197.824 -182.1)" fill="#2f2e41"/>
    <path id="Path_114" data-name="Path 114" d="M790.664,372.348a7.346,7.346,0,0,1-12.9-4.513,8.935,8.935,0,0,1,.01-1.593c.29-3.024,1.9-5.77,1.514-8.963a4.942,4.942,0,0,0-.792-2.2c-3.441-5.006-11.52,2.239-14.768-2.293-1.991-2.779.349-7.154-1.179-10.26-2.017-4.1-7.992-2.077-11.738-4.322-4.169-2.5-3.919-9.446-1.175-13.672,3.347-5.154,9.214-7.9,15.008-8.3s11.549,1.305,16.958,3.6c6.146,2.6,12.241,6.2,16.024,12.07,4.6,7.14,5.042,16.739,2.742,25.088C798.967,362.063,794.191,368.267,790.664,372.348Z" transform="translate(-198.484 -186.909)" fill="#2f2e41"/>
    <path id="Path_115" data-name="Path 115" d="M962.481,709.631H266.618a1.223,1.223,0,0,1,0-2.438H962.481a1.223,1.223,0,0,1,0,2.438Z" transform="translate(-170.776 -177.548)" fill="#3f3d56"/>
    <path id="Path_116" data-name="Path 116" d="M626.155,607.684H503.626a6.365,6.365,0,0,1-6.126-6.569V304a6.365,6.365,0,0,1,6.126-6.569H626.155A6.365,6.365,0,0,1,632.282,304V601.115A6.365,6.365,0,0,1,626.155,607.684Z" transform="translate(-184.109 -187.357)" fill="#fff"/>
    <rect id="Rectangle_47" data-name="Rectangle 47" width="134.782" height="2.048" transform="translate(313.391 206.211)" fill="#ccc"/>
    <rect id="Rectangle_48" data-name="Rectangle 48" width="134.782" height="2.048" transform="translate(313.862 323.053)" fill="#ccc"/>
    <rect id="Rectangle_49" data-name="Rectangle 49" width="1.885" height="311.277" transform="translate(355.805 110.073)" fill="#ccc"/>
    <rect id="Rectangle_50" data-name="Rectangle 50" width="1.885" height="311.277" transform="translate(402.931 110.073)" fill="#ccc"/>
  </g>
</svg>
