<svg xmlns="http://www.w3.org/2000/svg" width="536" height="322.881" viewBox="0 0 536 322.881">
  <g id="undraw_online_payments_luau" transform="translate(0 0)">
    <path id="Path_24" data-name="Path 24" d="M191.108,559.369l-3.219-12.7A164.869,164.869,0,0,0,170.4,540.4l-.406,5.9-1.648-6.5c-7.371-2.1-12.385-3.032-12.385-3.032s6.773,25.756,20.979,45.446l16.553,2.908-12.86,1.854a66.692,66.692,0,0,0,5.752,6.1c20.665,19.182,43.683,27.983,51.411,19.657s-2.76-30.625-23.425-49.807c-6.406-5.947-14.454-10.719-22.51-14.474Z" transform="translate(-155.96 -322.959)" fill="#e6e6e6"/>
    <path id="Path_25" data-name="Path 25" d="M248.973,526.73,252.78,514.2a164.875,164.875,0,0,0-11.728-14.412l-3.4,4.841,1.949-6.416c-5.221-5.612-9.034-9-9.034-9s-7.515,25.549-5.532,49.748L237.7,550.007l-11.967-5.06a66.7,66.7,0,0,0,1.773,8.192c7.775,27.1,22.93,46.534,33.849,43.4s13.468-27.643,5.692-54.746c-2.411-8.4-6.833-16.647-11.788-24.026Z" transform="translate(-183.213 -304.106)" fill="#e6e6e6"/>
    <rect id="Rectangle_28" data-name="Rectangle 28" width="535.952" height="1.352" transform="translate(0.048 294.321)" fill="#3f3d56"/>
    <path id="Path_26" data-name="Path 26" d="M287.027,434.6s-4.174,50.184-5.07,60.938a76.472,76.472,0,0,1-4.481,19.715,18.538,18.538,0,0,0-1.792,7.169v45.7s-3.584,0-2.688,3.585,1.792,9.857,1.792,9.857H288.23a2.775,2.775,0,0,1,1.792-3.585c2.688-.9,0-8.065,0-8.065l14.338-53.768,21.507-44.807s12.546,40.326,15.234,44.807c0,0,9.857,50.183,11.65,54.664s2.688,4.481,1.792,6.273-.9,3.584,0,4.481,17.923,0,17.923,0l-4.481-63.626-8.065-76.171L318.7,429.221Z" transform="translate(-202.302 -280.322)" fill="#2f2e41"/>
    <path id="Path_27" data-name="Path 27" d="M277.359,664.26s-4.481-16.13-11.65-3.584S258.54,677.7,258.54,677.7s-11.65,17.027,4.481,15.234,12.546-9.858,12.546-9.858,6.273-3.585,6.273-6.273S277.359,664.26,277.359,664.26Z" transform="translate(-195.015 -370.188)" fill="#2f2e41"/>
    <path id="Path_28" data-name="Path 28" d="M409.716,661.291s4.481-16.13,11.65-3.585,7.169,17.026,7.169,17.026,11.65,17.026-4.481,15.234-12.546-9.857-12.546-9.857-6.273-3.585-6.273-6.273S409.716,661.291,409.716,661.291Z" transform="translate(-254.785 -369.011)" fill="#2f2e41"/>
    <path id="Path_29" data-name="Path 29" d="M339.837,237.686s1.792,11.65-3.584,14.338,11.65,12.546,16.13,12.546,12.546-8.962,12.546-8.962-4.481-13.442-3.584-16.13Z" transform="translate(-227.025 -204.388)" fill="#a0616a"/>
    <circle id="Ellipse_3" data-name="Ellipse 3" cx="18.819" cy="18.819" r="18.819" transform="translate(103.851 4.622)" fill="#a0616a"/>
    <path id="Path_30" data-name="Path 30" d="M370.423,275.191l-22.4-13.573s-12.746,14.469-26.537-1.661l-23.648,6.273,3.585,60.937s-5.377,24.2-3.585,28.676-4.481,6.273-2.688,7.169,0,7.169,0,7.169S330.1,388.1,368.63,374.662l-3.584-11.65a9.4,9.4,0,0,0-1.792-8.961s3.585-5.377-.9-9.857c0,0,1.792-8.065-2.688-11.65l-.9-12.546,2.688-6.273Z" transform="translate(-211.012 -213.217)" fill="#cfcce0"/>
    <path id="Path_31" data-name="Path 31" d="M336.546,197.217s-2.244,4.855,6.731,2.913c0,0,3.365,1.942,3.365-.971,0,0,4.487,4.855,5.609,1.942s3.365.971,3.365.971l2.244-4.855,2.244,2.913h7.852s2.244-19.421-24.679-17.479S329.6,215.365,329.6,215.365s.217-5.524,2.46-2.61S336.546,197.217,336.546,197.217Z" transform="translate(-223.508 -182.515)" fill="#2f2e41"/>
    <path id="Path_32" data-name="Path 32" d="M422.39,344.589l.9,18.819s3.585,34.949-3.584,50.183v8.065s-1.792,20.611-10.754,19.715,2.688-29.572,2.688-29.572l-1.792-39.43-1.792-22.4Z" transform="translate(-254.914 -246.77)" fill="#a0616a"/>
    <path id="Path_33" data-name="Path 33" d="M398.452,285.729l8.939-1.452a43.645,43.645,0,0,1,12.568,22.96c2.688,14.338,3.585,17.026,3.585,17.026l-21.507,5.377-11.65-22.4Z" transform="translate(-248.899 -222.859)" fill="#cfcce0"/>
    <rect id="Rectangle_29" data-name="Rectangle 29" width="141.418" height="70.25" transform="translate(111.063 52.643)" fill="#fff"/>
    <path id="Path_34" data-name="Path 34" d="M359.2,275.464c-3.633-2.185-8.014-2.018-9.679-1.851.634,1.548,2.537,5.5,6.17,7.684a16.51,16.51,0,0,0,9.68,1.853C364.741,281.6,362.838,277.65,359.2,275.464Z" transform="translate(-232.699 -218.596)" fill="#0286e7"/>
    <path id="Path_35" data-name="Path 35" d="M375.577,348.571H352.87a5.109,5.109,0,1,0,0,10.218h22.708a5.109,5.109,0,0,0,0-10.218Z" transform="translate(-232 -248.348)" fill="#0286e7"/>
    <path id="Path_36" data-name="Path 36" d="M473.184,259.215H345.87a11.278,11.278,0,0,0-11.278,11.278v62.03A11.278,11.278,0,0,0,345.87,343.8H473.184a11.278,11.278,0,0,0,11.278-11.278v-62.03A11.278,11.278,0,0,0,473.184,259.215ZM342.72,266.908c.251-.045,6.213-1.06,11.15,1.91s6.833,8.713,6.911,8.956l.2.619-.641.114a17.019,17.019,0,0,1-2.763.2,16.451,16.451,0,0,1-8.387-2.114c-4.936-2.969-6.833-8.712-6.911-8.955l-.2-.619ZM370.357,324.5H347.649a6.245,6.245,0,1,1,0-12.489h22.708a6.245,6.245,0,0,1,0,12.489Zm103.32-1.135a6.832,6.832,0,0,1-6.812,6.812H449.833a6.832,6.832,0,0,1-6.812-6.812V313.146a6.832,6.832,0,0,1,6.812-6.812h17.031a6.832,6.832,0,0,1,6.812,6.812Z" transform="translate(-226.779 -212.923)" fill="#0286e7"/>
    <path id="Path_37" data-name="Path 37" d="M528.314,362.209h-7.38a1.987,1.987,0,1,0,0,3.974h7.38a1.987,1.987,0,1,0,0-3.974Zm0,2.839h-7.38a.852.852,0,0,1,0-1.7h7.38a.852.852,0,0,1,0,1.7Z" transform="translate(-299.867 -253.755)" fill="#0286e7"/>
    <path id="Path_38" data-name="Path 38" d="M550.888,362.209h-7.38a1.987,1.987,0,1,0,0,3.974h7.38a1.987,1.987,0,1,0,0-3.974Zm0,2.839h-7.38a.852.852,0,1,1,0-1.7h7.38a.852.852,0,0,1,0,1.7Z" transform="translate(-308.816 -253.755)" fill="#0286e7"/>
    <path id="Path_39" data-name="Path 39" d="M528.314,353.744h-7.38a1.987,1.987,0,1,0,0,3.974h7.38a1.987,1.987,0,1,0,0-3.974Zm0,2.839h-7.38a.852.852,0,0,1,0-1.7h7.38a.852.852,0,1,1,0,1.7Z" transform="translate(-299.867 -250.399)" fill="#0286e7"/>
    <path id="Path_40" data-name="Path 40" d="M550.888,353.744h-7.38a1.987,1.987,0,1,0,0,3.974h7.38a1.987,1.987,0,1,0,0-3.974Zm0,2.839h-7.38a.852.852,0,1,1,0-1.7h7.38a.852.852,0,1,1,0,1.7Z" transform="translate(-308.816 -250.399)" fill="#0286e7"/>
    <path id="Path_41" data-name="Path 41" d="M528.314,345.279h-7.38a1.987,1.987,0,1,0,0,3.974h7.38a1.987,1.987,0,1,0,0-3.974Zm0,2.838h-7.38a.852.852,0,1,1,0-1.7h7.38a.852.852,0,1,1,0,1.7Z" transform="translate(-299.867 -247.043)" fill="#0286e7"/>
    <path id="Path_42" data-name="Path 42" d="M550.888,345.279h-7.38a1.987,1.987,0,1,0,0,3.974h7.38a1.987,1.987,0,1,0,0-3.974Zm0,2.838h-7.38a.852.852,0,1,1,0-1.7h7.38a.852.852,0,1,1,0,1.7Z" transform="translate(-308.816 -247.043)" fill="#0286e7"/>
    <path id="Path_43" data-name="Path 43" d="M275.5,311.971s-8.065,34.053,1.792,34.053,33.157-38.534,33.157-38.534,24.2-12.546,14.338-17.026-22.4,7.169-22.4,7.169l-14.476,20.1-.758-10.241Z" transform="translate(-202.122 -224.905)" fill="#a0616a"/>
    <path id="Path_44" data-name="Path 44" d="M294.009,275.727l-5.377-5.377s-10.754,6.273-11.65,12.546-5.377,25.988-5.377,25.988l16.578,1.344,5.377-8.065Z" transform="translate(-201.808 -217.338)" fill="#cfcce0"/>
    <path id="Path_45" data-name="Path 45" d="M727.047,242.508c-.675-1.993-9.141-8.769-3.953-9.908l4.254,5.672,19.559-19.559,1.967,1.967Z" transform="translate(-380.137 -196.866)" fill="#0286e7"/>
    <path id="Path_46" data-name="Path 46" d="M727.047,352.7c-.675-1.993-9.141-8.769-3.953-9.908l4.254,5.673,19.559-19.559,1.967,1.967Z" transform="translate(-380.137 -240.553)" fill="#0286e7"/>
    <path id="Path_47" data-name="Path 47" d="M727.047,464.47c-.675-1.993-9.141-8.769-3.953-9.908l4.254,5.672,19.559-19.559,1.967,1.967Z" transform="translate(-380.137 -284.863)" fill="#0286e7"/>
    <circle id="Ellipse_4" data-name="Ellipse 4" cx="6.035" cy="6.035" r="6.035" transform="translate(400.118 31.519)" fill="#3f3d56"/>
    <rect id="Rectangle_30" data-name="Rectangle 30" width="97.171" height="1.207" transform="translate(428.786 36.951)" fill="#3f3d56"/>
    <circle id="Ellipse_5" data-name="Ellipse 5" cx="6.035" cy="6.035" r="6.035" transform="translate(400.118 98.027)" fill="#3f3d56"/>
    <rect id="Rectangle_31" data-name="Rectangle 31" width="97.171" height="1.207" transform="translate(428.786 103.458)" fill="#3f3d56"/>
    <circle id="Ellipse_6" data-name="Ellipse 6" cx="6.035" cy="6.035" r="6.035" transform="translate(400.118 165.484)" fill="#3f3d56"/>
    <rect id="Rectangle_32" data-name="Rectangle 32" width="97.171" height="1.207" transform="translate(428.786 170.916)" fill="#3f3d56"/>
    <path id="Path_48" data-name="Path 48" d="M580.218,292.266H550.04V261.485h20.521v1.207H551.247v28.367H579.01V277.177h1.207Z" transform="translate(-218.064 -103.666)" fill="#3f3d56"/>
    <path id="Path_49" data-name="Path 49" d="M580.218,180.266H550.04V149.485h20.521v1.207H551.247v28.367H579.01V165.177h1.207Z" transform="translate(-218.064 -59.264)" fill="#3f3d56"/>
    <path id="Path_50" data-name="Path 50" d="M580.218,66.266H550.04V35.485h20.521v1.207H551.247V65.059H579.01V51.177h1.207Z" transform="translate(-218.064 -14.068)" fill="#3f3d56"/>
  </g>
</svg>
