<svg xmlns="http://www.w3.org/2000/svg" width="536" height="447.3" viewBox="0 0 536 447.3">
  <g id="undraw_shopping_app_flsj_2_" data-name="undraw_shopping_app_flsj (2)" transform="translate(0 0)">
    <path id="Path_51" data-name="Path 51" d="M376.856,184.732h-2.434v-66.67a38.587,38.587,0,0,0-38.587-38.587H194.587A38.587,38.587,0,0,0,156,118.062V483.819a38.587,38.587,0,0,0,38.586,38.587h141.25a38.587,38.587,0,0,0,38.587-38.587V232.189h2.434Z" transform="translate(-156 -79.476)" fill="#e6e6e6"/>
    <path id="Path_52" data-name="Path 52" d="M344.385,96.107H325.947a13.69,13.69,0,0,1-12.676,18.861H232.353a13.69,13.69,0,0,1-12.676-18.861H202.456a28.816,28.816,0,0,0-28.816,28.816V490.143a28.816,28.816,0,0,0,28.816,28.816H344.385A28.816,28.816,0,0,0,373.2,490.143V124.924a28.816,28.816,0,0,0-28.816-28.816Z" transform="translate(-162.992 -86.069)" fill="#fff"/>
    <path id="Path_53" data-name="Path 53" d="M263.369,219.111H254.9a1.124,1.124,0,0,0-1.124,1.123v3.72a1.124,1.124,0,0,0,1.124,1.124h1.4v5.573h5.666v-5.573h1.4a1.124,1.124,0,0,0,1.124-1.124v-3.72A1.124,1.124,0,0,0,263.369,219.111Z" transform="translate(-194.756 -134.827)" fill="#e6e6e6"/>
    <path id="Path_54" data-name="Path 54" d="M266.734,256.886a43.567,43.567,0,0,1-7.579-25.83.919.919,0,0,0-.717-.917v-1.607h-8.95v1.585h-.123a.918.918,0,0,0-.917.92q0,.033,0,.067a39.76,39.76,0,0,1-7.143,26.442,2.531,2.531,0,0,0-.458,1.534l.979,30.272a2.621,2.621,0,0,0,2.6,2.529h20.243a2.621,2.621,0,0,0,2.6-2.574l.377-29.391A5.3,5.3,0,0,0,266.734,256.886Z" transform="translate(-189.633 -138.561)" fill="#e6e6e6"/>
    <path id="Path_55" data-name="Path 55" d="M265.666,292.166h-17.62a1.809,1.809,0,0,0-1.788,2.084l2.663,17.307H264.21l3.234-17.249a1.809,1.809,0,0,0-1.778-2.142Z" transform="translate(-191.77 -163.785)" fill="#fff"/>
    <path id="Path_56" data-name="Path 56" d="M419.654,369.345h-8.475a1.123,1.123,0,0,0-1.124,1.124v3.72a1.124,1.124,0,0,0,1.124,1.124h1.4v5.573h5.666v-5.573h1.4a1.124,1.124,0,0,0,1.123-1.124v-3.72a1.124,1.124,0,0,0-1.123-1.124Z" transform="translate(-256.707 -194.379)" fill="#e6e6e6"/>
    <path id="Path_57" data-name="Path 57" d="M423.019,407.121a43.567,43.567,0,0,1-7.579-25.83.919.919,0,0,0-.717-.917v-1.607h-8.95v1.585h-.123a.918.918,0,0,0-.917.919q0,.034,0,.067a39.76,39.76,0,0,1-7.143,26.442,2.531,2.531,0,0,0-.458,1.534l.979,30.272a2.62,2.62,0,0,0,2.6,2.529h20.243a2.621,2.621,0,0,0,2.6-2.574l.377-29.391a5.3,5.3,0,0,0-.911-3.029Z" transform="translate(-251.584 -198.114)" fill="#e6e6e6"/>
    <path id="Path_58" data-name="Path 58" d="M421.95,442.4H404.33a1.809,1.809,0,0,0-1.788,2.084l2.663,17.307h15.289l3.234-17.249a1.809,1.809,0,0,0-1.778-2.142Z" transform="translate(-253.72 -223.338)" fill="#fff"/>
    <path id="Path_59" data-name="Path 59" d="M246.945,581.733h-4.02a.533.533,0,0,0-.533.533v1.764a.533.533,0,0,0,.533.533h.666v2.644h2.687v-2.644h.666a.533.533,0,0,0,.533-.533v-1.764a.533.533,0,0,0-.533-.533Z" transform="translate(-190.246 -278.569)" fill="#e6e6e6"/>
    <path id="Path_60" data-name="Path 60" d="M248.541,599.651a20.665,20.665,0,0,1-3.6-12.253.436.436,0,0,0-.34-.435V586.2h-4.245v.752H240.3a.436.436,0,0,0-.435.436c0,.011,0,.021,0,.032a18.86,18.86,0,0,1-3.388,12.543,1.2,1.2,0,0,0-.217.728l.464,14.359a1.243,1.243,0,0,0,1.232,1.2h9.6a1.243,1.243,0,0,0,1.233-1.221l.179-13.942A2.516,2.516,0,0,0,248.541,599.651Z" transform="translate(-187.816 -280.34)" fill="#e6e6e6"/>
    <rect id="Rectangle_33" data-name="Rectangle 33" width="9.162" height="4.581" transform="translate(50.182 324.59)" fill="#fff"/>
    <path id="Path_61" data-name="Path 61" d="M277.945,581.733h-4.02a.533.533,0,0,0-.533.533v1.764a.533.533,0,0,0,.533.533h.666v2.644h2.687v-2.644h.666a.533.533,0,0,0,.533-.533v-1.764a.533.533,0,0,0-.533-.533Z" transform="translate(-202.534 -278.569)" fill="#e6e6e6"/>
    <path id="Path_62" data-name="Path 62" d="M279.541,599.651a20.665,20.665,0,0,1-3.6-12.253.436.436,0,0,0-.34-.435V586.2h-4.245v.752H271.3a.436.436,0,0,0-.435.436c0,.011,0,.021,0,.032a18.86,18.86,0,0,1-3.388,12.543,1.2,1.2,0,0,0-.217.728l.464,14.359a1.243,1.243,0,0,0,1.232,1.2h9.6a1.243,1.243,0,0,0,1.233-1.221l.179-13.942A2.516,2.516,0,0,0,279.541,599.651Z" transform="translate(-200.104 -280.34)" fill="#e6e6e6"/>
    <rect id="Rectangle_34" data-name="Rectangle 34" width="9.162" height="4.581" transform="translate(68.894 324.59)" fill="#fff"/>
    <path id="Path_63" data-name="Path 63" d="M308.945,581.733h-4.02a.533.533,0,0,0-.533.533v1.764a.533.533,0,0,0,.533.533h.666v2.644h2.687v-2.644h.666a.533.533,0,0,0,.533-.533v-1.764a.533.533,0,0,0-.533-.533Z" transform="translate(-214.822 -278.569)" fill="#e6e6e6"/>
    <path id="Path_64" data-name="Path 64" d="M310.541,599.651a20.665,20.665,0,0,1-3.6-12.253.436.436,0,0,0-.34-.435V586.2h-4.245v.752H302.3a.436.436,0,0,0-.435.436c0,.011,0,.021,0,.032a18.86,18.86,0,0,1-3.388,12.543,1.2,1.2,0,0,0-.217.728l.464,14.359a1.243,1.243,0,0,0,1.232,1.2h9.6a1.243,1.243,0,0,0,1.233-1.221l.179-13.942A2.516,2.516,0,0,0,310.541,599.651Z" transform="translate(-212.392 -280.34)" fill="#e6e6e6"/>
    <rect id="Rectangle_35" data-name="Rectangle 35" width="9.162" height="4.581" transform="translate(87.605 324.59)" fill="#fff"/>
    <path id="Path_65" data-name="Path 65" d="M395.264,523.613H386.79a1.124,1.124,0,0,0-1.124,1.124v3.72a1.123,1.123,0,0,0,1.123,1.123h1.4v5.573h5.666V529.58h1.4a1.123,1.123,0,0,0,1.123-1.123v-3.72A1.124,1.124,0,0,0,395.264,523.613Z" transform="translate(-247.039 -255.53)" fill="#e6e6e6"/>
    <path id="Path_66" data-name="Path 66" d="M398.629,561.389a43.567,43.567,0,0,1-7.579-25.83.919.919,0,0,0-.717-.917v-1.607h-8.95v1.585h-.123a.918.918,0,0,0-.917.919q0,.034,0,.067a39.76,39.76,0,0,1-7.143,26.442,2.531,2.531,0,0,0-.458,1.534l.979,30.272a2.62,2.62,0,0,0,2.6,2.529h20.243a2.621,2.621,0,0,0,2.6-2.574l.377-29.391A5.3,5.3,0,0,0,398.629,561.389Z" transform="translate(-241.916 -259.265)" fill="#e6e6e6"/>
    <path id="Path_67" data-name="Path 67" d="M397.561,596.668h-17.62a1.809,1.809,0,0,0-1.788,2.084l2.663,17.307H396.1l3.234-17.249a1.809,1.809,0,0,0-1.778-2.142Z" transform="translate(-244.052 -284.489)" fill="#fff"/>
    <path id="Path_68" data-name="Path 68" d="M376.058,295.973H325.544c3.532-19.094,2.719-42.151,0-66.946h50.514C373.412,253.823,372.62,276.88,376.058,295.973Z" transform="translate(-223.207 -138.757)" fill="#e6e6e6"/>
    <circle id="Ellipse_7" data-name="Ellipse 7" cx="12.172" cy="12.172" r="12.172" transform="translate(115.727 109.745)" fill="#fff"/>
    <path id="Path_69" data-name="Path 69" d="M299.428,443.183H248.914c3.532-19.094,2.719-42.151,0-66.946h50.514C296.782,401.032,295.991,424.09,299.428,443.183Z" transform="translate(-192.831 -197.111)" fill="#e6e6e6"/>
    <circle id="Ellipse_8" data-name="Ellipse 8" cx="12.172" cy="12.172" r="12.172" transform="translate(69.473 198.602)" fill="#fff"/>
    <path id="Path_70" data-name="Path 70" d="M423.447,303.031H372.933c3.532-19.094,2.719-42.151,0-66.946h50.514C420.8,260.881,420.01,283.938,423.447,303.031Z" transform="translate(-241.991 -141.555)" fill="#e6e6e6"/>
    <circle id="Ellipse_9" data-name="Ellipse 9" cx="12.172" cy="12.172" r="12.172" transform="translate(144.331 114.005)" fill="#fff"/>
    <path id="Path_71" data-name="Path 71" d="M423.447,297.99H372.933c3.532-19.094,2.719-42.151,0-66.946h50.514C420.8,255.839,420.01,278.9,423.447,297.99Z" transform="translate(-241.991 -139.557)" fill="#e6e6e6"/>
    <circle id="Ellipse_10" data-name="Ellipse 10" cx="12.172" cy="12.172" r="12.172" transform="translate(144.331 110.962)" fill="#fff"/>
    <path id="Path_72" data-name="Path 72" d="M423.447,303.031H372.933c3.532-19.094,2.719-42.151,0-66.946h50.514C420.8,260.881,420.01,283.938,423.447,303.031Z" transform="translate(-241.991 -141.555)" fill="#e6e6e6"/>
    <circle id="Ellipse_11" data-name="Ellipse 11" cx="12.172" cy="12.172" r="12.172" transform="translate(144.331 114.005)" fill="#fff"/>
    <rect id="Rectangle_36" data-name="Rectangle 36" width="165.541" height="18.258" transform="translate(27.479 153.565)" fill="#e6e6e6"/>
    <rect id="Rectangle_37" data-name="Rectangle 37" width="165.541" height="18.258" transform="translate(27.479 244.247)" fill="#e6e6e6"/>
    <rect id="Rectangle_38" data-name="Rectangle 38" width="165.541" height="18.258" transform="translate(27.479 334.929)" fill="#e6e6e6"/>
    <path id="Path_73" data-name="Path 73" d="M925.771,702.025l-41.241-29.17c13.909-13.549,26.56-32.843,38.658-54.657l41.241,29.169C947.95,666.083,933.99,684.451,925.771,702.025Z" transform="translate(-444.786 -293.023)" fill="#0286e7"/>
    <circle id="Ellipse_12" data-name="Ellipse 12" cx="12.172" cy="12.172" r="12.172" transform="translate(468.824 353.601)" fill="#fff"/>
    <path id="Path_74" data-name="Path 74" d="M619.895,536.554h-4.527a.6.6,0,0,0-.6.6v1.987a.6.6,0,0,0,.6.6h.75v2.977h3.027v-2.977h.75a.6.6,0,0,0,.6-.6v-1.987a.6.6,0,0,0-.6-.6Z" transform="translate(-337.854 -260.66)" fill="#e6e6e6"/>
    <path id="Path_75" data-name="Path 75" d="M621.692,556.734a23.274,23.274,0,0,1-4.049-13.8.491.491,0,0,0-.383-.49v-.859h-4.781v.847h-.066a.491.491,0,0,0-.49.491c0,.012,0,.024,0,.036a21.24,21.24,0,0,1-3.816,14.126,1.351,1.351,0,0,0-.245.819l.523,16.172a1.4,1.4,0,0,0,1.388,1.351h10.814a1.4,1.4,0,0,0,1.389-1.375l.2-15.7A2.834,2.834,0,0,0,621.692,556.734Z" transform="translate(-335.117 -262.655)" fill="#0286e7"/>
    <path id="Path_76" data-name="Path 76" d="M620,537.627a1.295,1.295,0,1,1-2.59,0" transform="translate(-338.9 -261.085)" opacity="0.2"/>
    <rect id="Rectangle_39" data-name="Rectangle 39" width="9.129" height="6.086" transform="translate(275.341 297.195)" fill="#fff"/>
    <path id="Path_77" data-name="Path 77" d="M854.3,641.218h-8.474a1.124,1.124,0,0,0-1.124,1.124v3.72a1.123,1.123,0,0,0,1.124,1.124h1.4v5.573H852.9v-5.573h1.4a1.124,1.124,0,0,0,1.124-1.124v-3.72a1.124,1.124,0,0,0-1.123-1.123Z" transform="translate(-428.998 -302.148)" fill="#e6e6e6"/>
    <path id="Path_78" data-name="Path 78" d="M857.664,678.994a43.567,43.567,0,0,1-7.579-25.83.919.919,0,0,0-.717-.917V650.64h-8.95v1.585h-.123a.918.918,0,0,0-.917.92q0,.033,0,.067a39.76,39.76,0,0,1-7.143,26.443,2.531,2.531,0,0,0-.458,1.534l.979,30.271a2.621,2.621,0,0,0,2.6,2.529H855.6a2.621,2.621,0,0,0,2.6-2.574l.377-29.391A5.3,5.3,0,0,0,857.664,678.994Z" transform="translate(-423.876 -305.883)" fill="#0286e7"/>
    <path id="Path_79" data-name="Path 79" d="M854.492,643.226a2.424,2.424,0,0,1-4.848,0" transform="translate(-430.958 -302.944)" opacity="0.2"/>
    <path id="Path_80" data-name="Path 80" d="M856.6,714.273h-17.62a1.809,1.809,0,0,0-1.788,2.084l2.663,17.307H855.14l3.234-17.249a1.809,1.809,0,0,0-1.778-2.142Z" transform="translate(-426.012 -331.107)" fill="#fff"/>
    <path id="Path_81" data-name="Path 81" d="M787.372,713.031H736.858c3.532-19.094,2.719-42.151,0-66.946h50.514C784.726,670.88,783.935,693.937,787.372,713.031Z" transform="translate(-386.25 -304.077)" fill="#0286e7"/>
    <circle id="Ellipse_13" data-name="Ellipse 13" cx="12.172" cy="12.172" r="12.172" transform="translate(363.998 361.482)" fill="#fff"/>
    <path id="Path_82" data-name="Path 82" d="M322.243,311.541l11.34-1.031,7.217-17.525-12.886-7.217Z" transform="translate(-127.736 -113.277)" fill="#ffb8b8"/>
    <path id="Path_83" data-name="Path 83" d="M633.747,481.206h0a6.394,6.394,0,0,0-5.554-8.762l-17.607-1.05-2.592,8.621,18.125,4.978A6.394,6.394,0,0,0,633.747,481.206Z" transform="translate(-335.168 -234.831)" fill="#ffb8b8"/>
    <path id="Path_84" data-name="Path 84" d="M562.384,454.528l-.194-16.176-39.109-6.24-30.129-34.555A9.862,9.862,0,0,0,480.1,395.8h0a9.862,9.862,0,0,0-1.718,15.043l24.856,30.589Z" transform="translate(-282.711 -204.222)" fill="#575a89"/>
    <path id="Path_85" data-name="Path 85" d="M463.726,681.227h10.309l25.57-115.611L526.1,601.331,541.56,678.65h9.794l-2.062-82.988L514.756,507h-34.02c-9.3,16.825-16.59,34.169-8.247,52.061Z" transform="translate(-277.981 -248.946)" fill="#2f2e41"/>
    <path id="Path_86" data-name="Path 86" d="M582.124,799.45a2.69,2.69,0,0,0,2.1,3.452l25.227,4.477a4.151,4.151,0,0,0,4.709-2.845h0a4.125,4.125,0,0,0-2.017-4.9,38.572,38.572,0,0,1-13.912-12.1c-2.773,2.582-5.871,2.339-9.162.436l-3.49.436Z" transform="translate(-324.865 -360.147)" fill="#2f2e41"/>
    <path id="Path_87" data-name="Path 87" d="M455.738,799.45a2.69,2.69,0,0,0,2.1,3.452l25.227,4.477a4.151,4.151,0,0,0,4.709-2.845h0a4.125,4.125,0,0,0-2.017-4.9,38.572,38.572,0,0,1-13.912-12.1c-2.773,2.582-5.871,2.339-9.162.436l-3.49.436Z" transform="translate(-274.766 -360.147)" fill="#2f2e41"/>
    <circle id="Ellipse_14" data-name="Ellipse 14" cx="14.433" cy="14.433" r="14.433" transform="translate(198.889 157.285)" fill="#ffb8b8"/>
    <path id="Path_88" data-name="Path 88" d="M480.491,464.154l37.628-1.031-11.051-34.779c6.867-11.009-.044-22.007-9.825-33l-7.732-5.155-12.371-1.031h0a30.37,30.37,0,0,0-8.178,21.157A136.288,136.288,0,0,0,480.491,464.154Z" transform="translate(-280.056 -202.231)" fill="#575a89"/>
    <path id="Path_89" data-name="Path 89" d="M616.05,540.284h0a6.394,6.394,0,0,0-1.659-10.241l-15.774-7.892-5.775,6.906,14.706,11.707A6.394,6.394,0,0,0,616.05,540.284Z" transform="translate(-329.162 -254.95)" fill="#ffb8b8"/>
    <path id="Path_90" data-name="Path 90" d="M560.092,489.039l6.186-14.948-33.5-21.122L518.67,409.347a9.862,9.862,0,0,0-11.126-6.672h0a9.862,9.862,0,0,0-7.5,13.154l10.819,37.9Z" transform="translate(-292.132 -207.529)" fill="#575a89"/>
    <path id="Path_91" data-name="Path 91" d="M470.13,343.276c0,5.616,3.647,14.313,8.247,18.041,3.1,2.508,7.186,2.4,8.763-1.031,1.618-3.522,7.195-11.8,17.01-17.01,13.085-6.943-4.64-18.821-17.01-17.01C477.845,327.627,470.13,333.882,470.13,343.276Z" transform="translate(-280.52 -177.229)" fill="#2f2e41"/>
    <circle id="Ellipse_15" data-name="Ellipse 15" cx="10.309" cy="10.309" r="10.309" transform="translate(188.064 137.698)" fill="#2f2e41"/>
    <path id="Path_92" data-name="Path 92" d="M498.027,311.933a10.3,10.3,0,0,0-9.536-10.27c.256-.019.512-.039.773-.039a10.309,10.309,0,1,1,0,20.618c-.261,0-.517-.02-.773-.039A10.3,10.3,0,0,0,498.027,311.933Z" transform="translate(-287.798 -167.534)" fill="#2f2e41"/>
    <ellipse id="Ellipse_16" data-name="Ellipse 16" cx="2.32" cy="3.093" rx="2.32" ry="3.093" transform="translate(211.26 170.687)" fill="#ffb8b8"/>
    <path id="Path_93" data-name="Path 93" d="M691,574.61H530.515L496.532,413.96h-29v-7.208h34.845L536.358,567.4H691Z" transform="translate(-185.327 -161.235)" fill="#3f3d56"/>
    <circle id="Ellipse_17" data-name="Ellipse 17" cx="15.447" cy="15.447" r="15.447" transform="translate(353.259 411.83)" fill="#3f3d56"/>
    <circle id="Ellipse_18" data-name="Ellipse 18" cx="15.447" cy="15.447" r="15.447" transform="translate(468.597 411.83)" fill="#3f3d56"/>
    <path id="Path_94" data-name="Path 94" d="M868.273,669.289H712.133L684.584,533.145H894.126a7.4,7.4,0,0,1,7.313,8.551l-25.854,121.34a7.366,7.366,0,0,1-7.312,6.253Zm-154.444-2.06H868.273a5.315,5.315,0,0,0,5.277-4.513L899.4,541.377a5.342,5.342,0,0,0-5.278-6.172H687.084Z" transform="translate(-365.529 -259.308)" fill="#3f3d56"/>
    <path id="Path_95" data-name="Path 95" d="M612.665,589.943,594.623,455.433l2.032-.336L614.7,589.608Z" transform="translate(-235.706 -180.399)" fill="#3f3d56"/>
    <path id="Path_96" data-name="Path 96" d="M789.377,588.913l-2.034-.33L804.858,455.1l2.034.33Z" transform="translate(-312.1 -180.401)" fill="#3f3d56"/>
    <rect id="Rectangle_40" data-name="Rectangle 40" width="2.06" height="134.511" transform="translate(427.421 274.866)" fill="#3f3d56"/>
    <rect id="Rectangle_41" data-name="Rectangle 41" width="2.06" height="199.368" transform="translate(329.571 312.967) rotate(-89.861)" fill="#3f3d56"/>
    <rect id="Rectangle_42" data-name="Rectangle 42" width="175.153" height="2.06" transform="translate(339.73 375.73) rotate(-0.392)" fill="#3f3d56"/>
    <ellipse id="Ellipse_19" data-name="Ellipse 19" cx="11.328" cy="6.179" rx="11.328" ry="6.179" transform="translate(273.964 241.913)" fill="#3f3d56"/>
  </g>
</svg>
