<svg id="wifi" xmlns="http://www.w3.org/2000/svg" width="16" height="10.557" viewBox="0 0 16 10.557">
  <path id="Path_1" data-name="Path 1" d="M16.313,6.115a.47.47,0,0,0,.155-.379.478.478,0,0,0-.206-.357A13.779,13.779,0,0,0,8.468,3,13.776,13.776,0,0,0,.675,5.379a.478.478,0,0,0-.206.357.47.47,0,0,0,.155.379.576.576,0,0,0,.71.05A12.68,12.68,0,0,1,8.468,4,12.679,12.679,0,0,1,15.6,6.164a.575.575,0,0,0,.71-.049Z" transform="translate(-0.468 -3)" fill="#fff"/>
  <path id="Path_2" data-name="Path 2" d="M14.153,8.271a.458.458,0,0,0-.068-.745A10.938,10.938,0,0,0,8.468,6,10.926,10.926,0,0,0,2.852,7.526a.474.474,0,0,0-.228.357.46.46,0,0,0,.16.388.609.609,0,0,0,.709.065,9.933,9.933,0,0,1,9.951,0,.608.608,0,0,0,.709-.065ZM11.78,10.454a.446.446,0,0,0-.109-.75,7.637,7.637,0,0,0-6.405,0,.446.446,0,0,0-.109.75l.016.015a.617.617,0,0,0,.664.09,6.465,6.465,0,0,1,5.262,0,.615.615,0,0,0,.664-.091l.016-.015ZM9.621,12.44a.4.4,0,0,0-.043-.66,2.336,2.336,0,0,0-2.218,0,.4.4,0,0,0-.043.66l.767.706a.578.578,0,0,0,.77,0l.769-.707Z" transform="translate(-0.468 -2.736)" fill="#fff"/>
</svg>
