<svg xmlns="http://www.w3.org/2000/svg" width="16" height="16" viewBox="0 0 16 16">
  <path id="youtube" d="M8.052,2h.089c.822,0,4.987.047,6.11.477A2.6,2.6,0,0,1,15.666,4.5a18,18,0,0,1,.22,2l.01.148.022.37.008.148c.065,1.3.073,2.52.074,2.786v.107c0,.276-.01,1.577-.082,2.933l-.008.149-.009.148a19.712,19.712,0,0,1-.235,2.218,2.591,2.591,0,0,1-1.415,2.022c-1.16.444-5.569.475-6.18.477H7.928C7.619,18,6.341,17.99,5,17.925l-.17-.009-.087-.006-.171-.01-.171-.01a11.5,11.5,0,0,1-2.654-.37A2.59,2.59,0,0,1,.333,15.5,19.675,19.675,0,0,1,.1,13.283L.09,13.133l-.008-.148Q.008,11.538,0,10.087V9.913c0-.306.01-1.364.064-2.531l.007-.147,0-.074.008-.148L.1,6.643l.01-.148a17.956,17.956,0,0,1,.22-2A2.591,2.591,0,0,1,1.749,2.477,11.737,11.737,0,0,1,4.4,2.107l.17-.01.172-.009.086,0L5,2.074Q6.43,2.008,7.858,2h.193ZM6.4,6.569v6.859L10.558,10Z" transform="translate(0 -1.999)" fill="#fff"/>
</svg>
